<svg xmlns="http://www.w3.org/2000/svg" width="512" height="512" viewBox="0 0 512 512"><path fill="#d1d4d1" d="M53.332 0h405.336c29.252 0 52.966 23.713 52.966 52.966v406.069c0 29.252-23.713 52.966-52.966 52.966H53.332c-29.252 0-52.966-23.713-52.966-52.966V52.966C.366 23.713 24.08 0 53.332 0z"/><path fill="#35495e" d="M450.202 79.448V291.31c0 4.875-3.952 8.828-8.828 8.828h-35.31c-4.875 0-8.828 3.952-8.828 8.828v35.31c0 4.875-3.952 8.828-8.828 8.828h-26.483c-4.875 0-8.828 3.952-8.828 8.828v44.138c0 4.875-3.952 8.828-8.828 8.828H167.72c-4.875 0-8.828-3.952-8.828-8.828v-44.138c0-4.875-3.952-8.828-8.828-8.828h-26.483c-4.875 0-8.828-3.952-8.828-8.828v-35.31c0-4.875-3.952-8.828-8.828-8.828h-35.31c-4.875 0-8.828-3.952-8.828-8.828V79.448c0-4.875 3.952-8.828 8.828-8.828h370.759c4.876.001 8.828 3.953 8.828 8.828z"/><g fill="#e4c05c"><path d="M97.099 105.931h35.31v70.621h-35.31zM167.72 105.931h35.31v70.621h-35.31zM238.34 105.931h35.31v70.621h-35.31zM308.961 105.931h35.31v70.621h-35.31zM379.582 105.931h35.31v70.621h-35.31z"/></g><path fill="#4fba6f" d="M52.961 414.897h70.621v44.138H52.961z"/><path fill="#f29c1f" d="M388.409 414.897h70.621v44.138h-70.621z"/></svg>
