<svg xmlns="http://www.w3.org/2000/svg" viewBox="0 0 512 512"><path fill="#4fa7ff" d="M299.39 329.763h-86.78l-34.712-112.814V104.136h156.204v112.813z"/><g fill="#8ac0f7"><path d="M238.644 503.326h34.712v-173.56h-34.712zM212.61 104.136c0 23.969 19.421 43.39 43.39 43.39s43.39-19.421 43.39-43.39h-86.78z"/></g><path fill="#bdc3c7" d="M221.288 0v69.424h17.356v34.712h34.712V69.424h17.356V0z"/><g fill="#ecf0f1"><path d="M221.288 69.424V8.678h-34.712v95.458h52.068V69.424zM290.712 8.678v60.746h-17.356v34.712h52.068V8.678z"/></g><g fill="#8ac0f7"><path d="M229.966 303.729h-28.03c-4.799 0-8.678-3.879-8.678-8.678s3.879-8.678 8.678-8.678h28.03c4.799 0 8.678 3.879 8.678 8.678s-3.879 8.678-8.678 8.678M310.068 303.729h-28.03c-4.799 0-8.678-3.879-8.678-8.678s3.879-8.678 8.678-8.678h28.03c4.799 0 8.678 3.879 8.678 8.678s-3.879 8.678-8.678 8.678M229.966 269.017h-38.721c-4.799 0-8.678-3.879-8.678-8.678s3.879-8.678 8.678-8.678h38.721c4.799 0 8.678 3.879 8.678 8.678s-3.879 8.678-8.678 8.678M320.754 269.017h-38.721c-4.799 0-8.678-3.879-8.678-8.678s3.879-8.678 8.678-8.678h38.721c4.799 0 8.678 3.879 8.678 8.678s-3.879 8.678-8.678 8.678M229.966 234.305h-49.395c-4.799 0-8.678-3.879-8.678-8.678 0-4.799 3.879-8.678 8.678-8.678h49.395c4.799 0 8.678 3.879 8.678 8.678 0 4.799-3.879 8.678-8.678 8.678M331.432 234.305h-49.395c-4.799 0-8.678-3.879-8.678-8.678 0-4.799 3.879-8.678 8.678-8.678h49.395c4.799 0 8.678 3.879 8.678 8.678 0 4.799-3.879 8.678-8.678 8.678M229.966 199.593h-52.068c-4.799 0-8.678-3.879-8.678-8.678s3.879-8.678 8.678-8.678h52.068c4.799 0 8.678 3.879 8.678 8.678s-3.879 8.678-8.678 8.678M334.102 199.593h-52.068c-4.799 0-8.678-3.879-8.678-8.678s3.879-8.678 8.678-8.678h52.068c4.799 0 8.678 3.879 8.678 8.678s-3.879 8.678-8.678 8.678"/></g><path fill="#4fa7ff" d="M394.847 512H117.153c-4.799 0-8.678-3.879-8.678-8.678 0-4.799 3.879-8.678 8.678-8.678h277.695c4.799 0 8.678 3.879 8.678 8.678-.001 4.799-3.88 8.678-8.679 8.678"/></svg>
