<svg id="Layer_1" data-name="Layer 1" xmlns="http://www.w3.org/2000/svg" viewBox="0 0 96 96">
  <defs>
    <style>
      .cls-1{fill:none;stroke:#fff;stroke-linecap:round;stroke-linejoin:round;stroke-width:3px;}
    </style>
  </defs>
  <title>ethernet port</title>
  <rect class="cls-1" x="8" y="8" width="80" height="80" rx="4" ry="4"/>
  <polygon class="cls-1" points="78 22.5 18 22.5 18 59.5 28 59.5 28 66.5 34 66.5 34 73.5 62 73.5 62 66.5 68 66.5 68 59.5 78 59.5 78 22.5"/>
  <line class="cls-1" x1="26" y1="23" x2="26" y2="30"/>
  <line class="cls-1" x1="34.8" y1="23" x2="34.8" y2="30"/>
  <line class="cls-1" x1="43.6" y1="23" x2="43.6" y2="30"/>
  <line class="cls-1" x1="52.4" y1="23" x2="52.4" y2="30"/>
  <line class="cls-1" x1="61.2" y1="23" x2="61.2" y2="30"/>
  <line class="cls-1" x1="70" y1="23" x2="70" y2="30"/>
  <rect class="cls-1" x="71" y="74" width="10" height="7"/>
  <rect class="cls-1" x="15" y="74" width="10" height="7"/>
</svg>
