<?xml version="1.0" encoding="iso-8859-1"?>
<!-- Generator: Adobe Illustrator 19.0.0, SVG Export Plug-In . SVG Version: 6.00 Build 0)  -->
<svg version="1.1" id="Layer_1" xmlns="http://www.w3.org/2000/svg" xmlns:xlink="http://www.w3.org/1999/xlink" x="0px" y="0px"
	 viewBox="0 0 512 512" style="enable-background:new 0 0 512 512;" xml:space="preserve">
<g>
	<polygon style="fill:#4fa7ff;" points="299.39,329.763 212.61,329.763 177.898,216.949 177.898,104.136 334.102,104.136
		334.102,216.949 	"/>
	<g>
		<polygon style="fill:#8ac0f7;" points="238.644,503.326 273.356,503.326 273.356,329.766 238.644,329.766 		"/>
		<path style="fill:#8ac0f7;" d="M212.61,104.136c0,23.969,19.421,43.39,43.39,43.39s43.39-19.421,43.39-43.39H212.61z"/>
	</g>
	<polygon style="fill:#BDC3C7;" points="221.288,0 221.288,69.424 238.644,69.424 238.644,104.136 273.356,104.136 273.356,69.424
		290.712,69.424 290.712,0 	"/>
	<g>
		<polygon style="fill:#ECF0F1;" points="221.288,69.424 221.288,8.678 186.576,8.678 186.576,104.136 238.644,104.136
			238.644,69.424 		"/>
		<polygon style="fill:#ECF0F1;" points="290.712,8.678 290.712,69.424 273.356,69.424 273.356,104.136 325.424,104.136
			325.424,8.678 		"/>
	</g>
	<g>
		<path style="fill:#8ac0f7;" d="M229.966,303.729h-28.03c-4.799,0-8.678-3.879-8.678-8.678s3.879-8.678,8.678-8.678h28.03
			c4.799,0,8.678,3.879,8.678,8.678S234.765,303.729,229.966,303.729"/>
		<path style="fill:#8ac0f7;" d="M310.068,303.729h-28.03c-4.799,0-8.678-3.879-8.678-8.678s3.879-8.678,8.678-8.678h28.03
			c4.799,0,8.678,3.879,8.678,8.678S314.867,303.729,310.068,303.729"/>
		<path style="fill:#8ac0f7;" d="M229.966,269.017h-38.721c-4.799,0-8.678-3.879-8.678-8.678s3.879-8.678,8.678-8.678h38.721
			c4.799,0,8.678,3.879,8.678,8.678S234.765,269.017,229.966,269.017"/>
		<path style="fill:#8ac0f7;" d="M320.754,269.017h-38.721c-4.799,0-8.678-3.879-8.678-8.678s3.879-8.678,8.678-8.678h38.721
			c4.799,0,8.678,3.879,8.678,8.678S325.553,269.017,320.754,269.017"/>
		<path style="fill:#8ac0f7;" d="M229.966,234.305h-49.395c-4.799,0-8.678-3.879-8.678-8.678c0-4.799,3.879-8.678,8.678-8.678
			h49.395c4.799,0,8.678,3.879,8.678,8.678C238.644,230.426,234.765,234.305,229.966,234.305"/>
		<path style="fill:#8ac0f7;" d="M331.432,234.305h-49.395c-4.799,0-8.678-3.879-8.678-8.678c0-4.799,3.879-8.678,8.678-8.678
			h49.395c4.799,0,8.678,3.879,8.678,8.678C340.11,230.426,336.231,234.305,331.432,234.305"/>
		<path style="fill:#8ac0f7;" d="M229.966,199.593h-52.068c-4.799,0-8.678-3.879-8.678-8.678s3.879-8.678,8.678-8.678h52.068
			c4.799,0,8.678,3.879,8.678,8.678S234.765,199.593,229.966,199.593"/>
		<path style="fill:#8ac0f7;" d="M334.102,199.593h-52.068c-4.799,0-8.678-3.879-8.678-8.678s3.879-8.678,8.678-8.678h52.068
			c4.799,0,8.678,3.879,8.678,8.678S338.901,199.593,334.102,199.593"/>
	</g>
	<path style="fill:#4fa7ff;" d="M394.847,512H117.153c-4.799,0-8.678-3.879-8.678-8.678c0-4.799,3.879-8.678,8.678-8.678h277.695
		c4.799,0,8.678,3.879,8.678,8.678C403.525,508.121,399.646,512,394.847,512"/>
</g>
<g>
</g>
<g>
</g>
<g>
</g>
<g>
</g>
<g>
</g>
<g>
</g>
<g>
</g>
<g>
</g>
<g>
</g>
<g>
</g>
<g>
</g>
<g>
</g>
<g>
</g>
<g>
</g>
<g>
</g>
</svg>
