<svg xmlns="http://www.w3.org/2000/svg" id="Layer_1" data-name="Layer 1" width="96" height="96" viewBox="0 0 96 96"><defs><style>.cls-1{fill:none;stroke:#d3d3d3;stroke-linecap:round;stroke-linejoin:round;stroke-width:3px}</style></defs><circle cx="48" cy="48" r="40" class="cls-1"/><path d="M42 57.89a8.47 8.47 0 0 1 12 0" class="cls-1"/><circle cx="48" cy="64.38" r="2.62" fill="#d3d3d3"/><path d="M26 70l45.5-45.5" class="cls-1"/><path fill="#d3d3d3" d="M36.88 52.77a16.52 16.52 0 0 1 1.63-1.4l4.57-4.58a.5.5 0 0 0-.49-.84 18.54 18.54 0 0 0-7.83 4.7 1.5 1.5 0 0 0 2.12 2.12zM48.91 45.21l-3.12 3.12a16.19 16.19 0 0 1 2.21-.17 15.63 15.63 0 0 1 11.12 4.61 1.49 1.49 0 0 0 1.06.44 1.53 1.53 0 0 0 1.06-.44 1.51 1.51 0 0 0 0-2.12 18.56 18.56 0 0 0-12.33-5.44zM31.09 47A23.78 23.78 0 0 1 48 40c.46 0 .92 0 1.38.05a1 1 0 0 0 .77-.29l.92-.92a1 1 0 0 0-.62-1.71A26.85 26.85 0 0 0 29 44.85 1.5 1.5 0 0 0 31.09 47zM55.94 38.18l-2.43 2.43A23.87 23.87 0 0 1 64.91 47a1.45 1.45 0 0 0 1.06.44A1.47 1.47 0 0 0 67 47a1.49 1.49 0 0 0 0-2.12 26.86 26.86 0 0 0-11.06-6.7zM25.1 41a32.42 32.42 0 0 1 31.43-8.34 1 1 0 0 0 1-.25l.82-.82a1 1 0 0 0-.44-1.67 35.42 35.42 0 0 0-34.89 9A1.51 1.51 0 0 0 23 41a1.49 1.49 0 0 0 2.1 0zM73 38.86a35.56 35.56 0 0 0-10.5-7.26l-2.28 2.29A32.19 32.19 0 0 1 70.9 41a1.45 1.45 0 0 0 1.06.44A1.47 1.47 0 0 0 73 41a1.51 1.51 0 0 0 0-2.14z"/></svg>
