<svg xmlns="http://www.w3.org/2000/svg" width="681" height="340" viewBox="0 0 512 255"><path fill="#8aced8" d="M377 87l16-16-24-20a188 188 0 0 0-243 5l-15 13 24 17zm0 0"/><path fill="#79a73a" d="M222 61V11c-35 6-69 21-96 45l-15 13 60 43v51h86V86zm0 0"/><path fill="#89b140" d="M257 86h137l-43 26v51h-94zm0 0"/><path fill="#aac16b" d="M497 124a94 94 0 0 0-180 39h169a17 17 0 0 0 17-21l-6-18zm0 0"/><path fill="#64a8b2" d="M377 163a43 43 0 0 1 86 0v9h-86zm0 0"/><path fill="#787d82" d="M377 163h86v35h-86zm0 0"/><path fill="#aac16b" d="M164 92A94 94 0 0 0 9 154a9 9 0 0 0 8 9h180c0-27-12-53-33-71zm0 0"/><path fill="#64a8b2" d="M42 163a43 43 0 1 1 86 0v9H42zm0 0"/><path fill="#787d82" d="M42 163h86v35H42zm0 0"/><path d="M511 140c-1-7-4-13-6-19-20-42-64-66-109-59l-22-18c-75-60-181-58-253 5l-14 12c-7-1-15 0-22 1l-5-13h5a9 9 0 0 0 1-17l-41-6a9 9 0 0 0-2 17l18 3 7 20a103 103 0 0 0-68 87 17 17 0 0 0 17 19h17v34h103v-34h231v34h103v-34h15c8 0 16-4 20-10 5-6 7-14 5-22zM250 18c41 0 81 14 113 39l12 10c-7 3-14 6-21 11h-94l-29-22V19l19-1zm15 77h69c-15 17-24 38-25 60h-44zm-145 94H51v-17h69zm-2-34H52a34 34 0 0 1 66-2v2zm18 0l-2-7a51 51 0 0 0-100 7H17a86 86 0 0 1 142-56c16 14 27 34 29 56zm34-69c-12-10-26-18-41-22l3-2c23-20 51-34 82-40v43l34 26v64h-43c-3-27-15-51-35-69zm284 103h-69v-17h69zm-1-34h-66a34 34 0 0 1 65-2l1 2zm40-3c-2 2-4 3-7 3h-16a51 51 0 0 0-66-41c-18 6-32 22-35 41h-43a86 86 0 0 1 169-11c0 3 0 6-2 8zm0 0"/><path d="M180 52h17v17h-17zm0 0M282 112h18v17h-18zm0 0"/></svg>
