<svg xmlns="http://www.w3.org/2000/svg" id="Capa_1" viewBox="0 0 463 463"><defs><style></style></defs><path d="M455.5 116H375v-8.5c0-4.142-3.357-7.5-7.5-7.5s-7.5 3.358-7.5 7.5v8.5h-80.5c-4.143 0-7.5 3.358-7.5 7.5s3.357 7.5 7.5 7.5H344v17.025c-.166-.011-.331-.025-.5-.025h-224c-.169 0-.334.014-.5.025V131h64.5c4.143 0 7.5-3.358 7.5-7.5s-3.357-7.5-7.5-7.5H103v-8.5c0-4.142-3.357-7.5-7.5-7.5s-7.5 3.358-7.5 7.5v8.5H7.5c-4.143 0-7.5 3.358-7.5 7.5s3.357 7.5 7.5 7.5H72v24.5c0 10.336 6.71 19.128 16 22.266v9.734c0 4.142 3.357 7.5 7.5 7.5s7.5-3.358 7.5-7.5v-9.734c6.997-2.364 12.527-7.934 14.831-14.958.537.122 1.094.193 1.669.193h41.984l2.075 9.337c-8.8 1.493-15.95 7.889-18.526 16.273-18.082 3.292-37.13 19.703-40.495 40.443C94.968 232.027 88 240.965 88 251.5c0 10.336 6.71 19.128 16 22.266v19.469c-9.29 3.138-16 11.93-16 22.266v6.23l-7.208 14.416c-.521 1.041-.792 2.188-.792 3.353v16c0 4.142 3.357 7.5 7.5 7.5s7.5-3.358 7.5-7.5v-14.229L100.135 331h22.73L128 341.271V355.5c0 4.142 3.357 7.5 7.5 7.5s7.5-3.358 7.5-7.5v-16c0-1.165-.271-2.313-.792-3.354L135 321.73v-6.23c0-10.336-6.71-19.128-16-22.266v-19.469c9.29-3.138 16-11.93 16-22.266 0-10.061-6.357-18.662-15.264-22.007 2.982-12.358 14.623-22.769 25.789-25.677C148.891 212.681 157.469 219 167.5 219h6.575c1.219 3.652 3.262 6.855 5.903 9.415l-13.096 13.096c-4.438 4.438-6.883 10.34-6.883 16.617V268h-8.5c-4.143 0-7.5 3.358-7.5 7.5s3.357 7.5 7.5 7.5h32c4.143 0 7.5-3.358 7.5-7.5s-3.357-7.5-7.5-7.5H175v-9.873c0-2.271.884-4.405 2.49-6.011l17.187-17.187c.549.038 1.099.07 1.657.07h70.33c.558 0 1.109-.033 1.657-.07l17.187 17.187c1.606 1.605 2.49 3.74 2.49 6.011V268h-8.5c-4.143 0-7.5 3.358-7.5 7.5s3.357 7.5 7.5 7.5h32c4.143 0 7.5-3.358 7.5-7.5s-3.357-7.5-7.5-7.5H303v-9.873c0-6.277-2.444-12.179-6.883-16.617l-13.096-13.096c2.641-2.56 4.684-5.762 5.903-9.415h6.575c10.031 0 18.609-6.319 21.975-15.183 11.166 2.908 22.807 13.319 25.789 25.677C334.357 232.838 328 241.439 328 251.5c0 10.336 6.71 19.128 16 22.266v19.469c-9.29 3.138-16 11.93-16 22.266v6.23l-7.208 14.416c-.521 1.042-.792 2.189-.792 3.354v16c0 4.142 3.357 7.5 7.5 7.5s7.5-3.358 7.5-7.5v-14.229L340.135 331h22.73L368 341.271V355.5c0 4.142 3.357 7.5 7.5 7.5s7.5-3.358 7.5-7.5v-16c0-1.165-.271-2.313-.792-3.354L375 321.73v-6.23c0-10.336-6.71-19.128-16-22.266v-19.469c9.29-3.138 16-11.93 16-22.266 0-10.535-6.968-19.473-16.537-22.447-3.365-20.74-22.413-37.151-40.495-40.443-2.576-8.384-9.727-14.781-18.526-16.273l2.075-9.337H343.5c.574 0 1.132-.071 1.669-.193 2.304 7.024 7.834 12.595 14.831 14.958v9.734c0 4.142 3.357 7.5 7.5 7.5s7.5-3.358 7.5-7.5v-9.734c9.29-3.138 16-11.93 16-22.266V131h64.5c4.143 0 7.5-3.358 7.5-7.5s-3.357-7.5-7.5-7.5zm-360 48c-4.687 0-8.5-3.813-8.5-8.5V131h17v24.5c0 4.687-3.813 8.5-8.5 8.5zM120 316h-17v-.5c0-4.687 3.813-8.5 8.5-8.5s8.5 3.813 8.5 8.5v.5zm-8.5-56c-4.687 0-8.5-3.813-8.5-8.5s3.813-8.5 8.5-8.5 8.5 3.813 8.5 8.5-3.813 8.5-8.5 8.5zM360 316h-17v-.5c0-4.687 3.813-8.5 8.5-8.5s8.5 3.813 8.5 8.5v.5zm-8.5-56c-4.687 0-8.5-3.813-8.5-8.5s3.813-8.5 8.5-8.5 8.5 3.813 8.5 8.5-3.813 8.5-8.5 8.5zM159 195.5c0-4.459 3.454-8.12 7.825-8.466l3.77 16.966H167.5c-4.687 0-8.5-3.813-8.5-8.5zm145 0c0 4.687-3.813 8.5-8.5 8.5h-3.095l3.77-16.966c4.371.346 7.825 4.007 7.825 8.466zm-29.037 17.844c-.871 3.919-4.283 6.656-8.298 6.656h-70.33c-4.015 0-7.427-2.737-8.298-6.656L176.849 163H286.15l-11.187 50.344zM376 155.5c0 4.687-3.813 8.5-8.5 8.5s-8.5-3.813-8.5-8.5V131h17v24.5z"/><path d="M207.5 203c4.143 0 7.5-3.358 7.5-7.5v-8c0-4.142-3.357-7.5-7.5-7.5s-7.5 3.358-7.5 7.5v8c0 4.142 3.357 7.5 7.5 7.5zM255.5 203c4.143 0 7.5-3.358 7.5-7.5v-8c0-4.142-3.357-7.5-7.5-7.5s-7.5 3.358-7.5 7.5v8c0 4.142 3.357 7.5 7.5 7.5z"/></svg>
