<svg xmlns="http://www.w3.org/2000/svg" width="471.829" height="471.829" class="img"><path fill="#d3d3d3" stroke="#d3d3d3" d="M264.161 313.448h37.625l-79.061 65.449-54.565-65.449h37.922l21.978-64.429h-46.515l46.284-128.868h52.633l-30.178 87.117h49.236l-35.359 106.18zm95.76-245.396v362.946c0 22.51-18.308 40.83-40.832 40.83H152.737c-22.522 0-40.829-18.32-40.829-40.83V68.052c0-22.514 18.312-40.832 40.829-40.832h34.607V0h95.27v27.221h36.475c22.524 0 40.832 18.317 40.832 40.831zm-27.216 0c0-7.501-6.108-13.611-13.62-13.611H152.737c-7.508 0-13.615 6.109-13.615 13.611v362.946c0 7.499 6.107 13.611 13.615 13.611h166.352c7.508 0 13.616-6.106 13.616-13.611V68.052z"/></svg>
