<svg id="Layer_1" data-name="Layer 1" xmlns="http://www.w3.org/2000/svg" viewBox="0 0 96 96"><defs><style>.cls-1{fill:none;stroke:#d3d3d3;stroke-linecap:round;stroke-linejoin:round;stroke-width:3px;}</style></defs><title>nowifi</title><circle class="cls-1" cx="48" cy="48" r="40"/><path class="cls-1" d="M42,57.89a8.47,8.47,0,0,1,12,0"/><circle fill="#d3d3d3" cx="48" cy="64.38" r="2.62"/><line class="cls-1" x1="26" y1="70" x2="71.5" y2="24.5"/><path fill="#d3d3d3" d="M36.88,52.77a16.52,16.52,0,0,1,1.63-1.4l4.57-4.58a.5.5,0,0,0-.49-.84,18.54,18.54,0,0,0-7.83,4.7,1.5,1.5,0,0,0,2.12,2.12Z"/><path fill="#d3d3d3" d="M48.91,45.21l-3.12,3.12A16.19,16.19,0,0,1,48,48.16a15.63,15.63,0,0,1,11.12,4.61,1.49,1.49,0,0,0,1.06.44,1.53,1.53,0,0,0,1.06-.44,1.51,1.51,0,0,0,0-2.12A18.56,18.56,0,0,0,48.91,45.21Z"/><path fill="#d3d3d3" d="M31.09,47A23.78,23.78,0,0,1,48,40c.46,0,.92,0,1.38.05a1,1,0,0,0,.77-.29l.92-.92a1,1,0,0,0-.62-1.71A26.85,26.85,0,0,0,29,44.85,1.5,1.5,0,0,0,31.09,47Z"/><path fill="#d3d3d3" d="M55.94,38.18l-2.43,2.43A23.87,23.87,0,0,1,64.91,47a1.45,1.45,0,0,0,1.06.44A1.47,1.47,0,0,0,67,47a1.49,1.49,0,0,0,0-2.12A26.86,26.86,0,0,0,55.94,38.18Z"/><path fill="#d3d3d3" d="M25.1,41a32.42,32.42,0,0,1,31.43-8.34,1,1,0,0,0,1-.25l.82-.82a1,1,0,0,0-.44-1.67,35.42,35.42,0,0,0-34.89,9A1.51,1.51,0,0,0,23,41,1.49,1.49,0,0,0,25.1,41Z"/><path fill="#d3d3d3" d="M73,38.86a35.56,35.56,0,0,0-10.5-7.26l-2.28,2.29A32.19,32.19,0,0,1,70.9,41a1.45,1.45,0,0,0,1.06.44A1.47,1.47,0,0,0,73,41,1.51,1.51,0,0,0,73,38.86Z"/></svg>
