<svg height="255pt" viewBox="0 0 511.99955 255" width="511pt" xmlns="http://www.w3.org/2000/svg">

	<path d="m376.777344 86.925781 16.601562-16.164062-24.867187-20.050781c-33.484375-26.949219-75.179688-41.640626-118.164063-41.632813-45.636718 0-89.71875 16.5625-124.0625 46.617187l-15.351562 13.410157 24.011718 17.152343zm0 0" fill="#8aced8"/>

	<path d="m222.417969 60.53125v-49.199219c-35.636719 5.28125-69.007813 20.679688-96.152344 44.363281l-15.332031 13.410157 60.03125 42.878906v51.453125h85.753906v-77.179688zm0 0" fill="#79a73a"/>

	<path d="m256.71875 86.257812h137.210938l-42.878907 25.726563v51.453125h-94.332031zm0 0" fill="#89b140"/>

	<path d="m496.835938 124.144531c-21.648438-47.386719-77.617188-68.246093-125.003907-46.59375-33.613281 15.359375-55.160156 48.929688-55.125 85.886719h169.558594c9.527344-.046875 17.214844-7.808594 17.167969-17.339844-.007813-1.34375-.171875-2.6875-.488282-3.996094-1.4375-6.171874-3.484374-12.1875-6.109374-17.957031zm0 0" fill="#aac16b"/>

	<path d="m376.777344 163.4375c0-23.679688 19.199218-42.878906 42.878906-42.878906 23.683594 0 42.878906 19.199218 42.878906 42.878906v8.578125h-85.757812zm0 0" fill="#64a8b2"/>

	<path d="m376.777344 163.4375h85.757812v34.304688h-85.757812zm0 0" fill="#787d82"/>

	<path d="m164.460938 92.433594c-39.117188-34.308594-98.640626-30.410156-132.949219 8.707031-12.960938 14.777344-20.976563 33.238281-22.921875 52.796875-.472656 4.75 2.996094 8.984375 7.746094 9.457031.277343.027344.554687.042969.832031.042969h179.402343c.085938-27.199219-11.625-53.105469-32.109374-71.003906zm0 0" fill="#aac16b"/>

	<path d="m42.328125 163.4375c-.035156-23.679688 19.132813-42.90625 42.816406-42.941406 18.773438-.027344 35.378907 12.160156 40.984375 30.078125 1.179688 4.191406 1.835938 8.511719 1.957032 12.863281v8.578125h-85.757813zm0 0" fill="#64a8b2"/>

	<path d="m42.328125 163.4375h85.757813v34.304688h-85.757813zm0 0" fill="#787d82"/>

	<path d="m511.296875 140.15625c-1.570313-6.722656-3.800781-13.269531-6.65625-19.554688-19.222656-41.558593-63.5-65.519531-108.808594-58.878906l-21.976562-17.691406c-74.492188-59.953125-181.28125-57.753906-253.238281 5.214844l-13.300782 11.628906c-7.535156-.378906-15.089844.054688-22.53125 1.292969l-4.5625-13.644531 3.808594.523437c.394531.058594.789062.085937 1.183594.085937 4.738281.011719 8.585937-3.820312 8.59375-8.554687.011718-4.300781-3.167969-7.941406-7.425782-8.519531l-41.480468-5.753906c-4.695313-.644532-9.023438 2.636718-9.671875 7.328124-.644531 4.695313 2.636719 9.023438 7.328125 9.667969l18.738281 2.574219c-.003906.066406-.003906.136719 0 .207031l6.765625 20.3125c-8.195312 2.847657-15.984375 6.761719-23.160156 11.636719-25.332032 17.132812-41.75 44.621094-44.8164065 75.046875-.9374995 9.472656 5.9804685 17.914063 15.4531245 18.851563.566407.054687 1.132813.085937 1.699219.085937h16.515625v34.300781h102.90625v-34.300781h231.542969v34.300781h102.910156v-34.300781h15.160157c7.824218.019531 15.226562-3.554687 20.074218-9.691406 4.96875-6.238281 6.792969-14.410157 4.949219-22.167969zm-260.949219-122.503906c41.007813.050781 80.777344 14.066406 112.753906 39.738281l12.003907 9.683594c-7.25 2.746093-14.171875 6.304687-20.625 10.609375h-94.90625l-28.582031-21.441406v-37.433594c6.425781-.734375 12.886718-1.121094 19.355468-1.15625zm14.949219 77.257812 68.878906.421875c-14.761719 16.546875-23.769531 37.433594-25.667969 59.53125h-43.210937zm-145.789063 94.253906h-68.605468v-17.148437h68.605468zm-1.121093-34.300781h-66.300781c4.691406-18.320312 23.34375-29.375 41.664062-24.6875 11.503906 2.945313 20.660156 11.636719 24.199219 22.972657.152343.523437.289062 1.121093.4375 1.714843zm17.417969 0c-.339844-2.320312-.847657-4.613281-1.519532-6.859375-8.542968-27.105468-37.4375-42.152344-64.542968-33.609375-18.414063 5.804688-32.03125 21.429688-35.261719 40.46875h-17.304688v-.078125c2.550781-25.382812 16.25-48.320312 37.390625-62.601562 14.058594-9.472656 30.640625-14.496094 47.59375-14.425782 20.824219-.082031 40.972656 7.40625 56.683594 21.070313 16.421875 14.296875 26.714844 34.359375 28.746094 56.035156zm34.300781-68.871093c-11.742188-10.25-25.691407-17.648438-40.761719-21.621094l2.574219-2.226563c23.351562-20.375 51.570312-34.363281 81.921875-40.605469v43.277344l34.304687 25.730469v64.316406h-43.453125c-2.195312-26.566406-14.589844-51.246093-34.585937-68.871093zm283.855469 103.171874h-68.605469v-17.148437h68.605469zm-1.160157-34.300781h-66.261719c4.703126-18.324219 23.371094-29.359375 41.691407-24.65625 11.484375 2.949219 20.625 11.625 24.167969 22.941407.171874.589843.265624 1.15625.402343 1.714843zm40.117188-3.207031c-1.597657 2.042969-4.050781 3.226562-6.644531 3.207031h-15.925782c-.371094-2.320312-.898437-4.613281-1.585937-6.859375-8.511719-27.113281-37.394531-42.191406-64.503907-33.679687-18.460937 5.796875-32.109374 21.457031-35.324218 40.539062h-43.222656c4.695312-47.128906 46.710937-81.527343 93.839843-76.828125 30.335938 3.023438 56.789063 21.925782 69.472657 49.652344 2.386718 5.253906 4.25 10.734375 5.566406 16.351562.644531 2.660157.03125 5.472657-1.671875 7.617188zm0 0"/>
	<path d="m179.539062 51.957031h17.152344v17.148438h-17.152344zm0 0"/>
	<path d="m282.445312 111.984375h17.152344v17.152344h-17.152344zm0 0"/>
</svg>
